%TF.GenerationSoftware,KiCad,Pcbnew,10.0.1*%
%TF.CreationDate,2026-04-22T09:29:02-05:00*%
%TF.ProjectId,Antec TPII Truecontrol,416e7465-6320-4545-9049-492054727565,rev?*%
%TF.SameCoordinates,Original*%
%TF.FileFunction,Legend,Bot*%
%TF.FilePolarity,Positive*%
%FSLAX46Y46*%
G04 Gerber Fmt 4.6, Leading zero omitted, Abs format (unit mm)*
G04 Created by KiCad (PCBNEW 10.0.1) date 2026-04-22 09:29:02*
%MOMM*%
%LPD*%
G01*
G04 APERTURE LIST*
%ADD10C,0.100000*%
G04 APERTURE END LIST*
D10*
X157214285Y-118366816D02*
X156738095Y-118366816D01*
X157309523Y-118652531D02*
X156976190Y-117652531D01*
X156976190Y-117652531D02*
X156642857Y-118652531D01*
X156309523Y-117985864D02*
X156309523Y-118652531D01*
X156309523Y-118081102D02*
X156261904Y-118033483D01*
X156261904Y-118033483D02*
X156166666Y-117985864D01*
X156166666Y-117985864D02*
X156023809Y-117985864D01*
X156023809Y-117985864D02*
X155928571Y-118033483D01*
X155928571Y-118033483D02*
X155880952Y-118128721D01*
X155880952Y-118128721D02*
X155880952Y-118652531D01*
X155547618Y-117985864D02*
X155166666Y-117985864D01*
X155404761Y-117652531D02*
X155404761Y-118509673D01*
X155404761Y-118509673D02*
X155357142Y-118604912D01*
X155357142Y-118604912D02*
X155261904Y-118652531D01*
X155261904Y-118652531D02*
X155166666Y-118652531D01*
X154452380Y-118604912D02*
X154547618Y-118652531D01*
X154547618Y-118652531D02*
X154738094Y-118652531D01*
X154738094Y-118652531D02*
X154833332Y-118604912D01*
X154833332Y-118604912D02*
X154880951Y-118509673D01*
X154880951Y-118509673D02*
X154880951Y-118128721D01*
X154880951Y-118128721D02*
X154833332Y-118033483D01*
X154833332Y-118033483D02*
X154738094Y-117985864D01*
X154738094Y-117985864D02*
X154547618Y-117985864D01*
X154547618Y-117985864D02*
X154452380Y-118033483D01*
X154452380Y-118033483D02*
X154404761Y-118128721D01*
X154404761Y-118128721D02*
X154404761Y-118223959D01*
X154404761Y-118223959D02*
X154880951Y-118319197D01*
X153547618Y-118604912D02*
X153642856Y-118652531D01*
X153642856Y-118652531D02*
X153833332Y-118652531D01*
X153833332Y-118652531D02*
X153928570Y-118604912D01*
X153928570Y-118604912D02*
X153976189Y-118557292D01*
X153976189Y-118557292D02*
X154023808Y-118462054D01*
X154023808Y-118462054D02*
X154023808Y-118176340D01*
X154023808Y-118176340D02*
X153976189Y-118081102D01*
X153976189Y-118081102D02*
X153928570Y-118033483D01*
X153928570Y-118033483D02*
X153833332Y-117985864D01*
X153833332Y-117985864D02*
X153642856Y-117985864D01*
X153642856Y-117985864D02*
X153547618Y-118033483D01*
X160690476Y-119262475D02*
X160119048Y-119262475D01*
X160404762Y-120262475D02*
X160404762Y-119262475D01*
X159785714Y-120262475D02*
X159785714Y-119595808D01*
X159785714Y-119786284D02*
X159738095Y-119691046D01*
X159738095Y-119691046D02*
X159690476Y-119643427D01*
X159690476Y-119643427D02*
X159595238Y-119595808D01*
X159595238Y-119595808D02*
X159500000Y-119595808D01*
X158738095Y-119595808D02*
X158738095Y-120262475D01*
X159166666Y-119595808D02*
X159166666Y-120119617D01*
X159166666Y-120119617D02*
X159119047Y-120214856D01*
X159119047Y-120214856D02*
X159023809Y-120262475D01*
X159023809Y-120262475D02*
X158880952Y-120262475D01*
X158880952Y-120262475D02*
X158785714Y-120214856D01*
X158785714Y-120214856D02*
X158738095Y-120167236D01*
X157880952Y-120214856D02*
X157976190Y-120262475D01*
X157976190Y-120262475D02*
X158166666Y-120262475D01*
X158166666Y-120262475D02*
X158261904Y-120214856D01*
X158261904Y-120214856D02*
X158309523Y-120119617D01*
X158309523Y-120119617D02*
X158309523Y-119738665D01*
X158309523Y-119738665D02*
X158261904Y-119643427D01*
X158261904Y-119643427D02*
X158166666Y-119595808D01*
X158166666Y-119595808D02*
X157976190Y-119595808D01*
X157976190Y-119595808D02*
X157880952Y-119643427D01*
X157880952Y-119643427D02*
X157833333Y-119738665D01*
X157833333Y-119738665D02*
X157833333Y-119833903D01*
X157833333Y-119833903D02*
X158309523Y-119929141D01*
X156976190Y-120214856D02*
X157071428Y-120262475D01*
X157071428Y-120262475D02*
X157261904Y-120262475D01*
X157261904Y-120262475D02*
X157357142Y-120214856D01*
X157357142Y-120214856D02*
X157404761Y-120167236D01*
X157404761Y-120167236D02*
X157452380Y-120071998D01*
X157452380Y-120071998D02*
X157452380Y-119786284D01*
X157452380Y-119786284D02*
X157404761Y-119691046D01*
X157404761Y-119691046D02*
X157357142Y-119643427D01*
X157357142Y-119643427D02*
X157261904Y-119595808D01*
X157261904Y-119595808D02*
X157071428Y-119595808D01*
X157071428Y-119595808D02*
X156976190Y-119643427D01*
X156404761Y-120262475D02*
X156499999Y-120214856D01*
X156499999Y-120214856D02*
X156547618Y-120167236D01*
X156547618Y-120167236D02*
X156595237Y-120071998D01*
X156595237Y-120071998D02*
X156595237Y-119786284D01*
X156595237Y-119786284D02*
X156547618Y-119691046D01*
X156547618Y-119691046D02*
X156499999Y-119643427D01*
X156499999Y-119643427D02*
X156404761Y-119595808D01*
X156404761Y-119595808D02*
X156261904Y-119595808D01*
X156261904Y-119595808D02*
X156166666Y-119643427D01*
X156166666Y-119643427D02*
X156119047Y-119691046D01*
X156119047Y-119691046D02*
X156071428Y-119786284D01*
X156071428Y-119786284D02*
X156071428Y-120071998D01*
X156071428Y-120071998D02*
X156119047Y-120167236D01*
X156119047Y-120167236D02*
X156166666Y-120214856D01*
X156166666Y-120214856D02*
X156261904Y-120262475D01*
X156261904Y-120262475D02*
X156404761Y-120262475D01*
X155642856Y-119595808D02*
X155642856Y-120262475D01*
X155642856Y-119691046D02*
X155595237Y-119643427D01*
X155595237Y-119643427D02*
X155499999Y-119595808D01*
X155499999Y-119595808D02*
X155357142Y-119595808D01*
X155357142Y-119595808D02*
X155261904Y-119643427D01*
X155261904Y-119643427D02*
X155214285Y-119738665D01*
X155214285Y-119738665D02*
X155214285Y-120262475D01*
X154880951Y-119595808D02*
X154499999Y-119595808D01*
X154738094Y-119262475D02*
X154738094Y-120119617D01*
X154738094Y-120119617D02*
X154690475Y-120214856D01*
X154690475Y-120214856D02*
X154595237Y-120262475D01*
X154595237Y-120262475D02*
X154499999Y-120262475D01*
X154166665Y-120262475D02*
X154166665Y-119595808D01*
X154166665Y-119786284D02*
X154119046Y-119691046D01*
X154119046Y-119691046D02*
X154071427Y-119643427D01*
X154071427Y-119643427D02*
X153976189Y-119595808D01*
X153976189Y-119595808D02*
X153880951Y-119595808D01*
X153404760Y-120262475D02*
X153499998Y-120214856D01*
X153499998Y-120214856D02*
X153547617Y-120167236D01*
X153547617Y-120167236D02*
X153595236Y-120071998D01*
X153595236Y-120071998D02*
X153595236Y-119786284D01*
X153595236Y-119786284D02*
X153547617Y-119691046D01*
X153547617Y-119691046D02*
X153499998Y-119643427D01*
X153499998Y-119643427D02*
X153404760Y-119595808D01*
X153404760Y-119595808D02*
X153261903Y-119595808D01*
X153261903Y-119595808D02*
X153166665Y-119643427D01*
X153166665Y-119643427D02*
X153119046Y-119691046D01*
X153119046Y-119691046D02*
X153071427Y-119786284D01*
X153071427Y-119786284D02*
X153071427Y-120071998D01*
X153071427Y-120071998D02*
X153119046Y-120167236D01*
X153119046Y-120167236D02*
X153166665Y-120214856D01*
X153166665Y-120214856D02*
X153261903Y-120262475D01*
X153261903Y-120262475D02*
X153404760Y-120262475D01*
X152499998Y-120262475D02*
X152595236Y-120214856D01*
X152595236Y-120214856D02*
X152642855Y-120119617D01*
X152642855Y-120119617D02*
X152642855Y-119262475D01*
X151404759Y-119357713D02*
X151357140Y-119310094D01*
X151357140Y-119310094D02*
X151261902Y-119262475D01*
X151261902Y-119262475D02*
X151023807Y-119262475D01*
X151023807Y-119262475D02*
X150928569Y-119310094D01*
X150928569Y-119310094D02*
X150880950Y-119357713D01*
X150880950Y-119357713D02*
X150833331Y-119452951D01*
X150833331Y-119452951D02*
X150833331Y-119548189D01*
X150833331Y-119548189D02*
X150880950Y-119691046D01*
X150880950Y-119691046D02*
X151452378Y-120262475D01*
X151452378Y-120262475D02*
X150833331Y-120262475D01*
X150404759Y-120167236D02*
X150357140Y-120214856D01*
X150357140Y-120214856D02*
X150404759Y-120262475D01*
X150404759Y-120262475D02*
X150452378Y-120214856D01*
X150452378Y-120214856D02*
X150404759Y-120167236D01*
X150404759Y-120167236D02*
X150404759Y-120262475D01*
X149738093Y-119262475D02*
X149642855Y-119262475D01*
X149642855Y-119262475D02*
X149547617Y-119310094D01*
X149547617Y-119310094D02*
X149499998Y-119357713D01*
X149499998Y-119357713D02*
X149452379Y-119452951D01*
X149452379Y-119452951D02*
X149404760Y-119643427D01*
X149404760Y-119643427D02*
X149404760Y-119881522D01*
X149404760Y-119881522D02*
X149452379Y-120071998D01*
X149452379Y-120071998D02*
X149499998Y-120167236D01*
X149499998Y-120167236D02*
X149547617Y-120214856D01*
X149547617Y-120214856D02*
X149642855Y-120262475D01*
X149642855Y-120262475D02*
X149738093Y-120262475D01*
X149738093Y-120262475D02*
X149833331Y-120214856D01*
X149833331Y-120214856D02*
X149880950Y-120167236D01*
X149880950Y-120167236D02*
X149928569Y-120071998D01*
X149928569Y-120071998D02*
X149976188Y-119881522D01*
X149976188Y-119881522D02*
X149976188Y-119643427D01*
X149976188Y-119643427D02*
X149928569Y-119452951D01*
X149928569Y-119452951D02*
X149880950Y-119357713D01*
X149880950Y-119357713D02*
X149833331Y-119310094D01*
X149833331Y-119310094D02*
X149738093Y-119262475D01*
X159523809Y-121396228D02*
X159571428Y-121348609D01*
X159571428Y-121348609D02*
X159666666Y-121300990D01*
X159666666Y-121300990D02*
X159761904Y-121300990D01*
X159761904Y-121300990D02*
X159857142Y-121348609D01*
X159857142Y-121348609D02*
X159904761Y-121396228D01*
X159904761Y-121396228D02*
X159952380Y-121491466D01*
X159952380Y-121491466D02*
X159952380Y-121586704D01*
X159952380Y-121586704D02*
X159904761Y-121681942D01*
X159904761Y-121681942D02*
X159857142Y-121729561D01*
X159857142Y-121729561D02*
X159761904Y-121777180D01*
X159761904Y-121777180D02*
X159666666Y-121777180D01*
X159666666Y-121777180D02*
X159571428Y-121729561D01*
X159571428Y-121729561D02*
X159523809Y-121681942D01*
X159523809Y-121300990D02*
X159523809Y-121681942D01*
X159523809Y-121681942D02*
X159476190Y-121729561D01*
X159476190Y-121729561D02*
X159428571Y-121729561D01*
X159428571Y-121729561D02*
X159333332Y-121681942D01*
X159333332Y-121681942D02*
X159285713Y-121586704D01*
X159285713Y-121586704D02*
X159285713Y-121348609D01*
X159285713Y-121348609D02*
X159380952Y-121205752D01*
X159380952Y-121205752D02*
X159523809Y-121110514D01*
X159523809Y-121110514D02*
X159714285Y-121062895D01*
X159714285Y-121062895D02*
X159904761Y-121110514D01*
X159904761Y-121110514D02*
X160047618Y-121205752D01*
X160047618Y-121205752D02*
X160142856Y-121348609D01*
X160142856Y-121348609D02*
X160190475Y-121539085D01*
X160190475Y-121539085D02*
X160142856Y-121729561D01*
X160142856Y-121729561D02*
X160047618Y-121872419D01*
X160047618Y-121872419D02*
X159904761Y-121967657D01*
X159904761Y-121967657D02*
X159714285Y-122015276D01*
X159714285Y-122015276D02*
X159523809Y-121967657D01*
X159523809Y-121967657D02*
X159380952Y-121872419D01*
X158857142Y-121872419D02*
X158857142Y-121205752D01*
X158857142Y-121300990D02*
X158809523Y-121253371D01*
X158809523Y-121253371D02*
X158714285Y-121205752D01*
X158714285Y-121205752D02*
X158571428Y-121205752D01*
X158571428Y-121205752D02*
X158476190Y-121253371D01*
X158476190Y-121253371D02*
X158428571Y-121348609D01*
X158428571Y-121348609D02*
X158428571Y-121872419D01*
X158428571Y-121348609D02*
X158380952Y-121253371D01*
X158380952Y-121253371D02*
X158285714Y-121205752D01*
X158285714Y-121205752D02*
X158142857Y-121205752D01*
X158142857Y-121205752D02*
X158047618Y-121253371D01*
X158047618Y-121253371D02*
X157999999Y-121348609D01*
X157999999Y-121348609D02*
X157999999Y-121872419D01*
X157523809Y-121872419D02*
X157523809Y-121205752D01*
X157523809Y-120872419D02*
X157571428Y-120920038D01*
X157571428Y-120920038D02*
X157523809Y-120967657D01*
X157523809Y-120967657D02*
X157476190Y-120920038D01*
X157476190Y-120920038D02*
X157523809Y-120872419D01*
X157523809Y-120872419D02*
X157523809Y-120967657D01*
X157190476Y-121205752D02*
X156809524Y-121205752D01*
X157047619Y-120872419D02*
X157047619Y-121729561D01*
X157047619Y-121729561D02*
X157000000Y-121824800D01*
X157000000Y-121824800D02*
X156904762Y-121872419D01*
X156904762Y-121872419D02*
X156809524Y-121872419D01*
X156047619Y-121824800D02*
X156142857Y-121872419D01*
X156142857Y-121872419D02*
X156333333Y-121872419D01*
X156333333Y-121872419D02*
X156428571Y-121824800D01*
X156428571Y-121824800D02*
X156476190Y-121777180D01*
X156476190Y-121777180D02*
X156523809Y-121681942D01*
X156523809Y-121681942D02*
X156523809Y-121396228D01*
X156523809Y-121396228D02*
X156476190Y-121300990D01*
X156476190Y-121300990D02*
X156428571Y-121253371D01*
X156428571Y-121253371D02*
X156333333Y-121205752D01*
X156333333Y-121205752D02*
X156142857Y-121205752D01*
X156142857Y-121205752D02*
X156047619Y-121253371D01*
X155619047Y-121872419D02*
X155619047Y-120872419D01*
X155190476Y-121872419D02*
X155190476Y-121348609D01*
X155190476Y-121348609D02*
X155238095Y-121253371D01*
X155238095Y-121253371D02*
X155333333Y-121205752D01*
X155333333Y-121205752D02*
X155476190Y-121205752D01*
X155476190Y-121205752D02*
X155571428Y-121253371D01*
X155571428Y-121253371D02*
X155619047Y-121300990D01*
X154714285Y-121872419D02*
X154714285Y-120872419D01*
X154619047Y-121491466D02*
X154333333Y-121872419D01*
X154333333Y-121205752D02*
X154714285Y-121586704D01*
X153904761Y-121872419D02*
X153904761Y-121205752D01*
X153904761Y-121396228D02*
X153857142Y-121300990D01*
X153857142Y-121300990D02*
X153809523Y-121253371D01*
X153809523Y-121253371D02*
X153714285Y-121205752D01*
X153714285Y-121205752D02*
X153619047Y-121205752D01*
X152857142Y-121872419D02*
X152857142Y-121348609D01*
X152857142Y-121348609D02*
X152904761Y-121253371D01*
X152904761Y-121253371D02*
X152999999Y-121205752D01*
X152999999Y-121205752D02*
X153190475Y-121205752D01*
X153190475Y-121205752D02*
X153285713Y-121253371D01*
X152857142Y-121824800D02*
X152952380Y-121872419D01*
X152952380Y-121872419D02*
X153190475Y-121872419D01*
X153190475Y-121872419D02*
X153285713Y-121824800D01*
X153285713Y-121824800D02*
X153333332Y-121729561D01*
X153333332Y-121729561D02*
X153333332Y-121634323D01*
X153333332Y-121634323D02*
X153285713Y-121539085D01*
X153285713Y-121539085D02*
X153190475Y-121491466D01*
X153190475Y-121491466D02*
X152952380Y-121491466D01*
X152952380Y-121491466D02*
X152857142Y-121443847D01*
X152380951Y-121872419D02*
X152380951Y-121205752D01*
X152380951Y-121300990D02*
X152333332Y-121253371D01*
X152333332Y-121253371D02*
X152238094Y-121205752D01*
X152238094Y-121205752D02*
X152095237Y-121205752D01*
X152095237Y-121205752D02*
X151999999Y-121253371D01*
X151999999Y-121253371D02*
X151952380Y-121348609D01*
X151952380Y-121348609D02*
X151952380Y-121872419D01*
X151952380Y-121348609D02*
X151904761Y-121253371D01*
X151904761Y-121253371D02*
X151809523Y-121205752D01*
X151809523Y-121205752D02*
X151666666Y-121205752D01*
X151666666Y-121205752D02*
X151571427Y-121253371D01*
X151571427Y-121253371D02*
X151523808Y-121348609D01*
X151523808Y-121348609D02*
X151523808Y-121872419D01*
X150666666Y-121824800D02*
X150761904Y-121872419D01*
X150761904Y-121872419D02*
X150952380Y-121872419D01*
X150952380Y-121872419D02*
X151047618Y-121824800D01*
X151047618Y-121824800D02*
X151095237Y-121729561D01*
X151095237Y-121729561D02*
X151095237Y-121348609D01*
X151095237Y-121348609D02*
X151047618Y-121253371D01*
X151047618Y-121253371D02*
X150952380Y-121205752D01*
X150952380Y-121205752D02*
X150761904Y-121205752D01*
X150761904Y-121205752D02*
X150666666Y-121253371D01*
X150666666Y-121253371D02*
X150619047Y-121348609D01*
X150619047Y-121348609D02*
X150619047Y-121443847D01*
X150619047Y-121443847D02*
X151095237Y-121539085D01*
X150285713Y-121205752D02*
X149761904Y-121205752D01*
X149761904Y-121205752D02*
X150285713Y-121872419D01*
X150285713Y-121872419D02*
X149761904Y-121872419D01*
M02*
