%TF.GenerationSoftware,KiCad,Pcbnew,10.0.1*%
%TF.CreationDate,2026-04-22T09:29:02-05:00*%
%TF.ProjectId,Antec TPII Truecontrol,416e7465-6320-4545-9049-492054727565,rev?*%
%TF.SameCoordinates,Original*%
%TF.FileFunction,Copper,L1,Top*%
%TF.FilePolarity,Positive*%
%FSLAX46Y46*%
G04 Gerber Fmt 4.6, Leading zero omitted, Abs format (unit mm)*
G04 Created by KiCad (PCBNEW 10.0.1) date 2026-04-22 09:29:02*
%MOMM*%
%LPD*%
G01*
G04 APERTURE LIST*
G04 Aperture macros list*
%AMRoundRect*
0 Rectangle with rounded corners*
0 $1 Rounding radius*
0 $2 $3 $4 $5 $6 $7 $8 $9 X,Y pos of 4 corners*
0 Add a 4 corners polygon primitive as box body*
4,1,4,$2,$3,$4,$5,$6,$7,$8,$9,$2,$3,0*
0 Add four circle primitives for the rounded corners*
1,1,$1+$1,$2,$3*
1,1,$1+$1,$4,$5*
1,1,$1+$1,$6,$7*
1,1,$1+$1,$8,$9*
0 Add four rect primitives between the rounded corners*
20,1,$1+$1,$2,$3,$4,$5,0*
20,1,$1+$1,$4,$5,$6,$7,0*
20,1,$1+$1,$6,$7,$8,$9,0*
20,1,$1+$1,$8,$9,$2,$3,0*%
G04 Aperture macros list end*
%TA.AperFunction,SMDPad,CuDef*%
%ADD10RoundRect,0.200000X-0.450000X0.200000X-0.450000X-0.200000X0.450000X-0.200000X0.450000X0.200000X0*%
%TD*%
%TA.AperFunction,SMDPad,CuDef*%
%ADD11RoundRect,0.250001X-1.249999X0.799999X-1.249999X-0.799999X1.249999X-0.799999X1.249999X0.799999X0*%
%TD*%
%TA.AperFunction,ComponentPad*%
%ADD12C,4.900000*%
%TD*%
%TA.AperFunction,ConnectorPad*%
%ADD13C,9.000000*%
%TD*%
%TA.AperFunction,ComponentPad*%
%ADD14C,1.440000*%
%TD*%
%TA.AperFunction,ComponentPad*%
%ADD15R,1.800000X1.800000*%
%TD*%
%TA.AperFunction,ComponentPad*%
%ADD16C,1.800000*%
%TD*%
%TA.AperFunction,SMDPad,CuDef*%
%ADD17RoundRect,0.250000X-0.262500X-0.450000X0.262500X-0.450000X0.262500X0.450000X-0.262500X0.450000X0*%
%TD*%
%TA.AperFunction,Conductor*%
%ADD18C,0.500000*%
%TD*%
G04 APERTURE END LIST*
D10*
%TO.P,J1,1,Pin_1*%
%TO.N,Net-(J1-Pin_1)*%
X169500000Y-100375000D03*
%TO.P,J1,2,Pin_2*%
%TO.N,Net-(J1-Pin_2)*%
X169500000Y-101625000D03*
%TO.P,J1,3,Pin_3*%
%TO.N,Net-(J1-Pin_3)*%
X169500000Y-102875000D03*
%TO.P,J1,4,Pin_4*%
%TO.N,GND*%
X169500000Y-104125000D03*
%TO.P,J1,5,Pin_5*%
%TO.N,Net-(J1-Pin_5)*%
X169500000Y-105375000D03*
%TO.P,J1,6,Pin_6*%
%TO.N,Net-(J1-Pin_6)*%
X169500000Y-106625000D03*
D11*
%TO.P,J1,MP*%
%TO.N,N/C*%
X166750000Y-97825000D03*
X166750000Y-109175000D03*
%TD*%
D12*
%TO.P,REF\u002A\u002A,1*%
%TO.N,N/C*%
X168500000Y-118000000D03*
D13*
X168500000Y-118000000D03*
%TD*%
D14*
%TO.P,Fan,1,1*%
%TO.N,GND*%
X139920000Y-90000000D03*
%TO.P,Fan,2,2*%
X142460000Y-90000000D03*
%TO.P,Fan,3,3*%
%TO.N,Net-(J1-Pin_1)*%
X145000000Y-90000000D03*
%TD*%
D15*
%TO.P,D2,1,K*%
%TO.N,GND*%
X157270000Y-90000000D03*
D16*
%TO.P,D2,2,A*%
%TO.N,Net-(D2-A)*%
X154730000Y-90000000D03*
%TD*%
D17*
%TO.P,R1,1*%
%TO.N,Net-(D2-A)*%
X155087500Y-96500000D03*
%TO.P,R1,2*%
%TO.N,Net-(J1-Pin_2)*%
X156912500Y-96500000D03*
%TD*%
D14*
%TO.P,12v,1,1*%
%TO.N,GND*%
X139920000Y-117000000D03*
%TO.P,12v,2,2*%
X142460000Y-117000000D03*
%TO.P,12v,3,3*%
%TO.N,Net-(J1-Pin_6)*%
X145000000Y-117000000D03*
%TD*%
%TO.P,3.3v,1,1*%
%TO.N,GND*%
X139920000Y-108000000D03*
%TO.P,3.3v,2,2*%
X142460000Y-108000000D03*
%TO.P,3.3v,3,3*%
%TO.N,Net-(J1-Pin_5)*%
X145000000Y-108000000D03*
%TD*%
%TO.P,5v,1,1*%
%TO.N,GND*%
X139920000Y-99000000D03*
%TO.P,5v,2,2*%
X142460000Y-99000000D03*
%TO.P,5v,3,3*%
%TO.N,Net-(J1-Pin_3)*%
X145000000Y-99000000D03*
%TD*%
D12*
%TO.P,REF\u002A\u002A,1*%
%TO.N,N/C*%
X168500000Y-89000000D03*
D13*
X168500000Y-89000000D03*
%TD*%
%TO.N,Net-(J1-Pin_1)*%
D18*
X145000000Y-95080000D02*
X150295000Y-100375000D01*
X145000000Y-90000000D02*
X145000000Y-95080000D01*
X150295000Y-100375000D02*
X169500000Y-100375000D01*
%TO.N,Net-(J1-Pin_5)*%
X147625000Y-105375000D02*
X169500000Y-105375000D01*
X145000000Y-108000000D02*
X147625000Y-105375000D01*
%TO.N,Net-(J1-Pin_3)*%
X148915000Y-102875000D02*
X169500000Y-102875000D01*
X145040000Y-99000000D02*
X148915000Y-102875000D01*
%TO.N,Net-(D2-A)*%
X155087500Y-90357500D02*
X154730000Y-90000000D01*
X155087500Y-96500000D02*
X155087500Y-90357500D01*
%TO.N,Net-(J1-Pin_2)*%
X169000000Y-95000000D02*
X171500000Y-97500000D01*
X171500000Y-97500000D02*
X171500000Y-100375460D01*
X164500000Y-95000000D02*
X169000000Y-95000000D01*
X170250460Y-101625000D02*
X169500000Y-101625000D01*
X164500000Y-95000000D02*
X163000000Y-96500000D01*
X163000000Y-96500000D02*
X156912500Y-96500000D01*
X171500000Y-100375460D02*
X170250460Y-101625000D01*
%TO.N,Net-(J1-Pin_6)*%
X145000000Y-111920000D02*
X150295000Y-106625000D01*
X150295000Y-106625000D02*
X169500000Y-106625000D01*
X145000000Y-117000000D02*
X145000000Y-111920000D01*
%TD*%
%TA.AperFunction,Conductor*%
%TO.N,GND*%
G36*
X166979330Y-84020185D02*
G01*
X167025085Y-84072989D01*
X167035029Y-84142147D01*
X167006004Y-84205703D01*
X166954703Y-84241020D01*
X166584568Y-84375739D01*
X166584564Y-84375740D01*
X166584558Y-84375743D01*
X166584550Y-84375746D01*
X166188835Y-84560272D01*
X166188819Y-84560280D01*
X165810682Y-84778598D01*
X165810656Y-84778614D01*
X165452986Y-85029057D01*
X165118490Y-85309734D01*
X164809734Y-85618490D01*
X164529057Y-85952986D01*
X164278614Y-86310656D01*
X164278598Y-86310682D01*
X164060280Y-86688819D01*
X164060272Y-86688835D01*
X163875746Y-87084550D01*
X163875740Y-87084565D01*
X163726392Y-87494894D01*
X163613383Y-87916655D01*
X163613379Y-87916672D01*
X163537557Y-88346675D01*
X163537557Y-88346679D01*
X163499500Y-88781669D01*
X163499500Y-89218330D01*
X163537557Y-89653320D01*
X163537557Y-89653324D01*
X163613379Y-90083327D01*
X163613383Y-90083344D01*
X163726392Y-90505105D01*
X163875740Y-90915434D01*
X163875746Y-90915449D01*
X164060272Y-91311164D01*
X164060280Y-91311180D01*
X164123589Y-91420834D01*
X164278603Y-91689326D01*
X164278607Y-91689332D01*
X164278614Y-91689343D01*
X164529057Y-92047013D01*
X164731930Y-92288787D01*
X164809732Y-92381507D01*
X165118493Y-92690268D01*
X165257572Y-92806969D01*
X165452986Y-92970942D01*
X165810656Y-93221385D01*
X165810663Y-93221389D01*
X165810674Y-93221397D01*
X166188826Y-93439723D01*
X166188835Y-93439727D01*
X166584550Y-93624253D01*
X166584555Y-93624255D01*
X166584568Y-93624261D01*
X166994888Y-93773605D01*
X166994889Y-93773605D01*
X166994894Y-93773607D01*
X167127398Y-93809110D01*
X167416663Y-93886619D01*
X167846682Y-93962443D01*
X168281671Y-94000499D01*
X168281672Y-94000500D01*
X168281673Y-94000500D01*
X168718328Y-94000500D01*
X168718328Y-94000499D01*
X169153318Y-93962443D01*
X169583337Y-93886619D01*
X170005112Y-93773605D01*
X170415432Y-93624261D01*
X170811174Y-93439723D01*
X171189326Y-93221397D01*
X171547012Y-92970943D01*
X171881507Y-92690268D01*
X172190268Y-92381507D01*
X172470943Y-92047012D01*
X172721397Y-91689326D01*
X172939723Y-91311174D01*
X173124261Y-90915432D01*
X173258979Y-90545296D01*
X173300404Y-90489034D01*
X173365673Y-90464098D01*
X173434062Y-90478408D01*
X173483857Y-90527420D01*
X173499500Y-90587708D01*
X173499500Y-116412291D01*
X173479815Y-116479330D01*
X173427011Y-116525085D01*
X173357853Y-116535029D01*
X173294297Y-116506004D01*
X173258979Y-116454703D01*
X173124261Y-116084568D01*
X173117027Y-116069055D01*
X172939727Y-115688835D01*
X172939719Y-115688819D01*
X172926013Y-115665080D01*
X172721397Y-115310674D01*
X172721389Y-115310663D01*
X172721385Y-115310656D01*
X172470942Y-114952986D01*
X172190265Y-114618490D01*
X171881509Y-114309734D01*
X171547013Y-114029057D01*
X171189343Y-113778614D01*
X171189332Y-113778607D01*
X171189326Y-113778603D01*
X171076978Y-113713739D01*
X170811180Y-113560280D01*
X170811164Y-113560272D01*
X170415449Y-113375746D01*
X170415434Y-113375740D01*
X170415432Y-113375739D01*
X170261301Y-113319640D01*
X170005105Y-113226392D01*
X169583344Y-113113383D01*
X169583347Y-113113383D01*
X169583337Y-113113381D01*
X169583331Y-113113379D01*
X169583327Y-113113379D01*
X169153322Y-113037557D01*
X168718330Y-112999500D01*
X168718327Y-112999500D01*
X168281673Y-112999500D01*
X168281669Y-112999500D01*
X167846679Y-113037557D01*
X167846675Y-113037557D01*
X167416672Y-113113379D01*
X167416655Y-113113383D01*
X166994894Y-113226392D01*
X166584565Y-113375740D01*
X166584550Y-113375746D01*
X166188835Y-113560272D01*
X166188819Y-113560280D01*
X165810682Y-113778598D01*
X165810656Y-113778614D01*
X165452986Y-114029057D01*
X165118490Y-114309734D01*
X164809734Y-114618490D01*
X164529057Y-114952986D01*
X164278614Y-115310656D01*
X164278598Y-115310682D01*
X164060280Y-115688819D01*
X164060272Y-115688835D01*
X163875746Y-116084550D01*
X163875740Y-116084565D01*
X163726392Y-116494894D01*
X163613383Y-116916655D01*
X163613379Y-116916672D01*
X163537557Y-117346675D01*
X163537557Y-117346679D01*
X163499500Y-117781669D01*
X163499500Y-118218330D01*
X163537557Y-118653320D01*
X163537557Y-118653324D01*
X163613379Y-119083327D01*
X163613383Y-119083344D01*
X163726392Y-119505105D01*
X163875740Y-119915434D01*
X163875746Y-119915449D01*
X164060272Y-120311164D01*
X164060280Y-120311180D01*
X164175037Y-120509944D01*
X164278603Y-120689326D01*
X164278607Y-120689332D01*
X164278614Y-120689343D01*
X164529057Y-121047013D01*
X164731930Y-121288787D01*
X164809732Y-121381507D01*
X165118493Y-121690268D01*
X165159380Y-121724576D01*
X165452986Y-121970942D01*
X165810656Y-122221385D01*
X165810663Y-122221389D01*
X165810674Y-122221397D01*
X166188826Y-122439723D01*
X166188835Y-122439727D01*
X166584550Y-122624253D01*
X166584554Y-122624254D01*
X166584568Y-122624261D01*
X166954703Y-122758979D01*
X167010965Y-122800404D01*
X167035901Y-122865673D01*
X167021591Y-122934062D01*
X166972579Y-122983857D01*
X166912291Y-122999500D01*
X137503051Y-122999500D01*
X137496968Y-122999351D01*
X137476900Y-122998365D01*
X137163071Y-122982947D01*
X137150962Y-122981754D01*
X136823305Y-122933151D01*
X136811369Y-122930777D01*
X136490055Y-122850292D01*
X136478411Y-122846759D01*
X136166540Y-122735170D01*
X136155301Y-122730515D01*
X135855844Y-122588883D01*
X135845121Y-122583150D01*
X135642498Y-122461703D01*
X135561011Y-122412862D01*
X135550893Y-122406102D01*
X135284829Y-122208775D01*
X135275423Y-122201055D01*
X135236475Y-122165755D01*
X135029986Y-121978604D01*
X135021395Y-121970013D01*
X134798944Y-121724576D01*
X134791224Y-121715170D01*
X134593897Y-121449106D01*
X134587137Y-121438988D01*
X134416844Y-121154871D01*
X134411120Y-121144163D01*
X134269479Y-120844688D01*
X134264829Y-120833459D01*
X134213257Y-120689326D01*
X134153240Y-120521588D01*
X134149707Y-120509944D01*
X134140958Y-120475015D01*
X134069219Y-120188617D01*
X134066848Y-120176694D01*
X134018245Y-119849037D01*
X134017052Y-119836927D01*
X134000649Y-119503032D01*
X134000500Y-119496948D01*
X134000500Y-107903984D01*
X138700000Y-107903984D01*
X138700000Y-108096015D01*
X138730040Y-108285684D01*
X138789383Y-108468321D01*
X138876561Y-108639415D01*
X138897798Y-108668646D01*
X139520000Y-108046445D01*
X139520000Y-108052661D01*
X139547259Y-108154394D01*
X139599920Y-108245606D01*
X139674394Y-108320080D01*
X139765606Y-108372741D01*
X139867339Y-108400000D01*
X139873554Y-108400000D01*
X139251351Y-109022200D01*
X139251352Y-109022201D01*
X139280577Y-109043434D01*
X139451678Y-109130616D01*
X139634315Y-109189959D01*
X139823985Y-109220000D01*
X140016015Y-109220000D01*
X140205684Y-109189959D01*
X140388321Y-109130616D01*
X140559419Y-109043436D01*
X140588646Y-109022201D01*
X140588646Y-109022200D01*
X139966447Y-108400000D01*
X139972661Y-108400000D01*
X140074394Y-108372741D01*
X140165606Y-108320080D01*
X140240080Y-108245606D01*
X140292741Y-108154394D01*
X140320000Y-108052661D01*
X140320000Y-108046446D01*
X140942200Y-108668646D01*
X140942201Y-108668646D01*
X140963436Y-108639419D01*
X141050616Y-108468319D01*
X141072069Y-108402297D01*
X141111507Y-108344621D01*
X141175865Y-108317423D01*
X141244712Y-108329338D01*
X141296187Y-108376582D01*
X141307931Y-108402297D01*
X141329383Y-108468319D01*
X141416561Y-108639415D01*
X141437798Y-108668646D01*
X142060000Y-108046445D01*
X142060000Y-108052661D01*
X142087259Y-108154394D01*
X142139920Y-108245606D01*
X142214394Y-108320080D01*
X142305606Y-108372741D01*
X142407339Y-108400000D01*
X142413554Y-108400000D01*
X141791351Y-109022200D01*
X141791352Y-109022201D01*
X141820577Y-109043434D01*
X141991678Y-109130616D01*
X142174315Y-109189959D01*
X142363985Y-109220000D01*
X142556015Y-109220000D01*
X142745684Y-109189959D01*
X142928321Y-109130616D01*
X143099419Y-109043436D01*
X143128646Y-109022201D01*
X143128646Y-109022200D01*
X142506447Y-108400000D01*
X142512661Y-108400000D01*
X142614394Y-108372741D01*
X142705606Y-108320080D01*
X142780080Y-108245606D01*
X142832741Y-108154394D01*
X142860000Y-108052661D01*
X142860000Y-108046446D01*
X143482200Y-108668646D01*
X143482201Y-108668646D01*
X143503436Y-108639419D01*
X143590616Y-108468319D01*
X143611805Y-108403108D01*
X143651242Y-108345433D01*
X143715600Y-108318234D01*
X143784447Y-108330148D01*
X143835923Y-108377392D01*
X143847667Y-108403108D01*
X143868916Y-108468505D01*
X143868917Y-108468506D01*
X143868918Y-108468509D01*
X143956135Y-108639681D01*
X144069055Y-108795102D01*
X144204898Y-108930945D01*
X144360319Y-109043865D01*
X144530576Y-109130616D01*
X144531493Y-109131083D01*
X144622845Y-109160764D01*
X144714199Y-109190447D01*
X144903945Y-109220500D01*
X144903946Y-109220500D01*
X145096054Y-109220500D01*
X145096055Y-109220500D01*
X145285801Y-109190447D01*
X145468509Y-109131082D01*
X145639681Y-109043865D01*
X145795102Y-108930945D01*
X145930945Y-108795102D01*
X146043865Y-108639681D01*
X146131082Y-108468509D01*
X146190447Y-108285801D01*
X146220500Y-108096055D01*
X146220500Y-107903945D01*
X146220498Y-107903937D01*
X146220383Y-107902469D01*
X146220500Y-107901911D01*
X146220500Y-107899073D01*
X146221096Y-107899073D01*
X146234740Y-107834091D01*
X146256316Y-107805050D01*
X147899548Y-106161819D01*
X147960871Y-106128334D01*
X147987229Y-106125500D01*
X149433770Y-106125500D01*
X149500809Y-106145185D01*
X149546564Y-106197989D01*
X149556508Y-106267147D01*
X149527483Y-106330703D01*
X149521451Y-106337181D01*
X144417050Y-111441580D01*
X144417044Y-111441588D01*
X144367812Y-111515268D01*
X144367813Y-111515269D01*
X144334921Y-111564496D01*
X144334914Y-111564508D01*
X144278342Y-111701086D01*
X144278340Y-111701092D01*
X144249500Y-111846079D01*
X144249500Y-115973796D01*
X144229815Y-116040835D01*
X144208263Y-116065530D01*
X144208343Y-116065610D01*
X144207179Y-116066773D01*
X144206042Y-116068077D01*
X144204902Y-116069050D01*
X144069057Y-116204895D01*
X144069057Y-116204896D01*
X144069055Y-116204898D01*
X144020560Y-116271645D01*
X143956135Y-116360318D01*
X143868917Y-116531492D01*
X143847667Y-116596892D01*
X143808229Y-116654567D01*
X143743870Y-116681765D01*
X143675024Y-116669850D01*
X143623548Y-116622605D01*
X143611805Y-116596891D01*
X143590616Y-116531680D01*
X143503434Y-116360577D01*
X143482201Y-116331352D01*
X143482200Y-116331351D01*
X142860000Y-116953552D01*
X142860000Y-116947339D01*
X142832741Y-116845606D01*
X142780080Y-116754394D01*
X142705606Y-116679920D01*
X142614394Y-116627259D01*
X142512661Y-116600000D01*
X142506447Y-116600000D01*
X143128646Y-115977798D01*
X143099415Y-115956561D01*
X142928321Y-115869383D01*
X142745684Y-115810040D01*
X142556015Y-115780000D01*
X142363985Y-115780000D01*
X142174315Y-115810040D01*
X141991678Y-115869383D01*
X141820578Y-115956564D01*
X141791352Y-115977798D01*
X141791351Y-115977798D01*
X142413554Y-116600000D01*
X142407339Y-116600000D01*
X142305606Y-116627259D01*
X142214394Y-116679920D01*
X142139920Y-116754394D01*
X142087259Y-116845606D01*
X142060000Y-116947339D01*
X142060000Y-116953553D01*
X141437798Y-116331351D01*
X141437798Y-116331352D01*
X141416564Y-116360578D01*
X141329383Y-116531678D01*
X141307931Y-116597703D01*
X141268493Y-116655378D01*
X141204134Y-116682576D01*
X141135288Y-116670661D01*
X141083812Y-116623417D01*
X141072069Y-116597703D01*
X141050616Y-116531678D01*
X140963434Y-116360577D01*
X140942201Y-116331352D01*
X140942200Y-116331351D01*
X140320000Y-116953552D01*
X140320000Y-116947339D01*
X140292741Y-116845606D01*
X140240080Y-116754394D01*
X140165606Y-116679920D01*
X140074394Y-116627259D01*
X139972661Y-116600000D01*
X139966447Y-116600000D01*
X140588646Y-115977798D01*
X140559415Y-115956561D01*
X140388321Y-115869383D01*
X140205684Y-115810040D01*
X140016015Y-115780000D01*
X139823985Y-115780000D01*
X139634315Y-115810040D01*
X139451678Y-115869383D01*
X139280578Y-115956564D01*
X139251352Y-115977798D01*
X139251351Y-115977798D01*
X139873554Y-116600000D01*
X139867339Y-116600000D01*
X139765606Y-116627259D01*
X139674394Y-116679920D01*
X139599920Y-116754394D01*
X139547259Y-116845606D01*
X139520000Y-116947339D01*
X139520000Y-116953553D01*
X138897798Y-116331351D01*
X138897798Y-116331352D01*
X138876564Y-116360578D01*
X138789383Y-116531678D01*
X138730040Y-116714315D01*
X138700000Y-116903984D01*
X138700000Y-117096015D01*
X138730040Y-117285684D01*
X138789383Y-117468321D01*
X138876561Y-117639415D01*
X138897798Y-117668646D01*
X139520000Y-117046445D01*
X139520000Y-117052661D01*
X139547259Y-117154394D01*
X139599920Y-117245606D01*
X139674394Y-117320080D01*
X139765606Y-117372741D01*
X139867339Y-117400000D01*
X139873554Y-117400000D01*
X139251351Y-118022200D01*
X139251352Y-118022201D01*
X139280577Y-118043434D01*
X139451678Y-118130616D01*
X139634315Y-118189959D01*
X139823985Y-118220000D01*
X140016015Y-118220000D01*
X140205684Y-118189959D01*
X140388321Y-118130616D01*
X140559419Y-118043436D01*
X140588646Y-118022201D01*
X140588646Y-118022200D01*
X139966447Y-117400000D01*
X139972661Y-117400000D01*
X140074394Y-117372741D01*
X140165606Y-117320080D01*
X140240080Y-117245606D01*
X140292741Y-117154394D01*
X140320000Y-117052661D01*
X140320000Y-117046446D01*
X140942200Y-117668646D01*
X140942201Y-117668646D01*
X140963436Y-117639419D01*
X141050616Y-117468319D01*
X141072069Y-117402297D01*
X141111507Y-117344621D01*
X141175865Y-117317423D01*
X141244712Y-117329338D01*
X141296187Y-117376582D01*
X141307931Y-117402297D01*
X141329383Y-117468319D01*
X141416561Y-117639415D01*
X141437798Y-117668646D01*
X142060000Y-117046445D01*
X142060000Y-117052661D01*
X142087259Y-117154394D01*
X142139920Y-117245606D01*
X142214394Y-117320080D01*
X142305606Y-117372741D01*
X142407339Y-117400000D01*
X142413554Y-117400000D01*
X141791351Y-118022200D01*
X141791352Y-118022201D01*
X141820577Y-118043434D01*
X141991678Y-118130616D01*
X142174315Y-118189959D01*
X142363985Y-118220000D01*
X142556015Y-118220000D01*
X142745684Y-118189959D01*
X142928321Y-118130616D01*
X143099419Y-118043436D01*
X143128646Y-118022201D01*
X143128646Y-118022200D01*
X142506447Y-117400000D01*
X142512661Y-117400000D01*
X142614394Y-117372741D01*
X142705606Y-117320080D01*
X142780080Y-117245606D01*
X142832741Y-117154394D01*
X142860000Y-117052661D01*
X142860000Y-117046446D01*
X143482200Y-117668646D01*
X143482201Y-117668646D01*
X143503436Y-117639419D01*
X143590616Y-117468319D01*
X143611805Y-117403108D01*
X143651242Y-117345433D01*
X143715600Y-117318234D01*
X143784447Y-117330148D01*
X143835923Y-117377392D01*
X143847667Y-117403108D01*
X143868916Y-117468505D01*
X143868917Y-117468506D01*
X143868918Y-117468509D01*
X143956135Y-117639681D01*
X144069055Y-117795102D01*
X144204898Y-117930945D01*
X144360319Y-118043865D01*
X144530576Y-118130616D01*
X144531493Y-118131083D01*
X144622845Y-118160764D01*
X144714199Y-118190447D01*
X144903945Y-118220500D01*
X144903946Y-118220500D01*
X145096054Y-118220500D01*
X145096055Y-118220500D01*
X145285801Y-118190447D01*
X145468509Y-118131082D01*
X145639681Y-118043865D01*
X145795102Y-117930945D01*
X145930945Y-117795102D01*
X146043865Y-117639681D01*
X146131082Y-117468509D01*
X146190447Y-117285801D01*
X146220500Y-117096055D01*
X146220500Y-116903945D01*
X146190447Y-116714199D01*
X146153342Y-116600000D01*
X146131083Y-116531493D01*
X146070346Y-116412291D01*
X146043865Y-116360319D01*
X145930945Y-116204898D01*
X145795102Y-116069055D01*
X145795097Y-116069050D01*
X145793958Y-116068077D01*
X145793646Y-116067599D01*
X145791657Y-116065610D01*
X145792075Y-116065191D01*
X145755771Y-116009566D01*
X145750500Y-115973796D01*
X145750500Y-112282230D01*
X145770185Y-112215191D01*
X145786819Y-112194549D01*
X149656384Y-108324984D01*
X164749500Y-108324984D01*
X164749500Y-110025015D01*
X164760000Y-110127795D01*
X164760001Y-110127796D01*
X164815186Y-110294335D01*
X164815187Y-110294337D01*
X164907286Y-110443651D01*
X164907289Y-110443655D01*
X165031344Y-110567710D01*
X165031348Y-110567713D01*
X165180662Y-110659812D01*
X165180664Y-110659813D01*
X165180666Y-110659814D01*
X165347203Y-110714999D01*
X165449992Y-110725500D01*
X165449997Y-110725500D01*
X168050003Y-110725500D01*
X168050008Y-110725500D01*
X168152797Y-110714999D01*
X168319334Y-110659814D01*
X168468655Y-110567711D01*
X168592711Y-110443655D01*
X168684814Y-110294334D01*
X168739999Y-110127797D01*
X168750500Y-110025008D01*
X168750500Y-108324992D01*
X168739999Y-108222203D01*
X168684814Y-108055666D01*
X168682960Y-108052661D01*
X168592713Y-107906348D01*
X168592710Y-107906344D01*
X168468655Y-107782289D01*
X168468651Y-107782286D01*
X168319337Y-107690187D01*
X168319335Y-107690186D01*
X168236065Y-107662593D01*
X168152797Y-107635001D01*
X168152795Y-107635000D01*
X168050015Y-107624500D01*
X168050008Y-107624500D01*
X165449992Y-107624500D01*
X165449984Y-107624500D01*
X165347204Y-107635000D01*
X165347203Y-107635001D01*
X165180664Y-107690186D01*
X165180662Y-107690187D01*
X165031348Y-107782286D01*
X165031344Y-107782289D01*
X164907289Y-107906344D01*
X164907286Y-107906348D01*
X164815187Y-108055662D01*
X164815186Y-108055664D01*
X164760001Y-108222203D01*
X164760000Y-108222204D01*
X164749500Y-108324984D01*
X149656384Y-108324984D01*
X150569549Y-107411819D01*
X150630872Y-107378334D01*
X150657230Y-107375500D01*
X168572023Y-107375500D01*
X168636171Y-107393382D01*
X168760394Y-107468478D01*
X168922804Y-107519086D01*
X168993384Y-107525500D01*
X168993387Y-107525500D01*
X170006613Y-107525500D01*
X170006616Y-107525500D01*
X170077196Y-107519086D01*
X170239606Y-107468478D01*
X170385185Y-107380472D01*
X170505472Y-107260185D01*
X170593478Y-107114606D01*
X170644086Y-106952196D01*
X170650500Y-106881616D01*
X170650500Y-106368384D01*
X170644086Y-106297804D01*
X170593478Y-106135394D01*
X170550408Y-106064149D01*
X170532573Y-105996595D01*
X170550409Y-105935850D01*
X170593478Y-105864606D01*
X170644086Y-105702196D01*
X170650500Y-105631616D01*
X170650500Y-105118384D01*
X170644086Y-105047804D01*
X170593478Y-104885394D01*
X170550115Y-104813663D01*
X170532280Y-104746112D01*
X170550116Y-104685366D01*
X170593019Y-104614396D01*
X170593020Y-104614393D01*
X170643590Y-104452106D01*
X170650000Y-104381572D01*
X170650000Y-104375000D01*
X168350001Y-104375000D01*
X168350001Y-104381582D01*
X168356408Y-104452102D01*
X168356409Y-104452111D01*
X168359993Y-104463610D01*
X168361144Y-104533470D01*
X168324344Y-104592863D01*
X168261275Y-104622930D01*
X168241608Y-104624500D01*
X147551076Y-104624500D01*
X147522242Y-104630234D01*
X147522243Y-104630235D01*
X147406093Y-104653339D01*
X147406083Y-104653342D01*
X147326081Y-104686479D01*
X147326082Y-104686480D01*
X147269506Y-104709915D01*
X147224758Y-104739815D01*
X147146582Y-104792049D01*
X147146579Y-104792052D01*
X145194951Y-106743679D01*
X145133628Y-106777164D01*
X145100927Y-106779389D01*
X145100927Y-106779500D01*
X145099298Y-106779500D01*
X145097564Y-106779618D01*
X145096061Y-106779500D01*
X145096055Y-106779500D01*
X144903945Y-106779500D01*
X144849496Y-106788124D01*
X144714197Y-106809553D01*
X144531493Y-106868916D01*
X144360318Y-106956135D01*
X144330502Y-106977798D01*
X144204898Y-107069055D01*
X144204896Y-107069057D01*
X144204895Y-107069057D01*
X144069057Y-107204895D01*
X144069057Y-107204896D01*
X144069055Y-107204898D01*
X144020560Y-107271645D01*
X143956135Y-107360318D01*
X143868917Y-107531492D01*
X143847667Y-107596892D01*
X143808229Y-107654567D01*
X143743870Y-107681765D01*
X143675024Y-107669850D01*
X143623548Y-107622605D01*
X143611805Y-107596891D01*
X143590616Y-107531680D01*
X143503434Y-107360577D01*
X143482201Y-107331352D01*
X143482200Y-107331351D01*
X142860000Y-107953552D01*
X142860000Y-107947339D01*
X142832741Y-107845606D01*
X142780080Y-107754394D01*
X142705606Y-107679920D01*
X142614394Y-107627259D01*
X142512661Y-107600000D01*
X142506447Y-107600000D01*
X143128646Y-106977798D01*
X143099415Y-106956561D01*
X142928321Y-106869383D01*
X142745684Y-106810040D01*
X142556015Y-106780000D01*
X142363985Y-106780000D01*
X142174315Y-106810040D01*
X141991678Y-106869383D01*
X141820578Y-106956564D01*
X141791352Y-106977798D01*
X141791351Y-106977798D01*
X142413554Y-107600000D01*
X142407339Y-107600000D01*
X142305606Y-107627259D01*
X142214394Y-107679920D01*
X142139920Y-107754394D01*
X142087259Y-107845606D01*
X142060000Y-107947339D01*
X142060000Y-107953553D01*
X141437798Y-107331351D01*
X141437798Y-107331352D01*
X141416564Y-107360578D01*
X141329383Y-107531678D01*
X141307931Y-107597703D01*
X141268493Y-107655378D01*
X141204134Y-107682576D01*
X141135288Y-107670661D01*
X141083812Y-107623417D01*
X141072069Y-107597703D01*
X141050616Y-107531678D01*
X140963434Y-107360577D01*
X140942201Y-107331352D01*
X140942200Y-107331351D01*
X140320000Y-107953552D01*
X140320000Y-107947339D01*
X140292741Y-107845606D01*
X140240080Y-107754394D01*
X140165606Y-107679920D01*
X140074394Y-107627259D01*
X139972661Y-107600000D01*
X139966447Y-107600000D01*
X140588646Y-106977798D01*
X140559415Y-106956561D01*
X140388321Y-106869383D01*
X140205684Y-106810040D01*
X140016015Y-106780000D01*
X139823985Y-106780000D01*
X139634315Y-106810040D01*
X139451678Y-106869383D01*
X139280578Y-106956564D01*
X139251352Y-106977798D01*
X139251351Y-106977798D01*
X139873554Y-107600000D01*
X139867339Y-107600000D01*
X139765606Y-107627259D01*
X139674394Y-107679920D01*
X139599920Y-107754394D01*
X139547259Y-107845606D01*
X139520000Y-107947339D01*
X139520000Y-107953553D01*
X138897798Y-107331351D01*
X138897798Y-107331352D01*
X138876564Y-107360578D01*
X138789383Y-107531678D01*
X138730040Y-107714315D01*
X138700000Y-107903984D01*
X134000500Y-107903984D01*
X134000500Y-89903984D01*
X138700000Y-89903984D01*
X138700000Y-90096015D01*
X138730040Y-90285684D01*
X138789383Y-90468321D01*
X138876561Y-90639415D01*
X138897798Y-90668646D01*
X139520000Y-90046445D01*
X139520000Y-90052661D01*
X139547259Y-90154394D01*
X139599920Y-90245606D01*
X139674394Y-90320080D01*
X139765606Y-90372741D01*
X139867339Y-90400000D01*
X139873554Y-90400000D01*
X139251351Y-91022200D01*
X139251352Y-91022201D01*
X139280577Y-91043434D01*
X139451678Y-91130616D01*
X139634315Y-91189959D01*
X139823985Y-91220000D01*
X140016015Y-91220000D01*
X140205684Y-91189959D01*
X140388321Y-91130616D01*
X140559419Y-91043436D01*
X140588646Y-91022201D01*
X140588646Y-91022200D01*
X139966447Y-90400000D01*
X139972661Y-90400000D01*
X140074394Y-90372741D01*
X140165606Y-90320080D01*
X140240080Y-90245606D01*
X140292741Y-90154394D01*
X140320000Y-90052661D01*
X140320000Y-90046446D01*
X140942200Y-90668646D01*
X140942201Y-90668646D01*
X140963436Y-90639419D01*
X141050616Y-90468319D01*
X141072069Y-90402297D01*
X141111507Y-90344621D01*
X141175865Y-90317423D01*
X141244712Y-90329338D01*
X141296187Y-90376582D01*
X141307931Y-90402297D01*
X141329383Y-90468319D01*
X141416561Y-90639415D01*
X141437798Y-90668646D01*
X142060000Y-90046445D01*
X142060000Y-90052661D01*
X142087259Y-90154394D01*
X142139920Y-90245606D01*
X142214394Y-90320080D01*
X142305606Y-90372741D01*
X142407339Y-90400000D01*
X142413554Y-90400000D01*
X141791351Y-91022200D01*
X141791352Y-91022201D01*
X141820577Y-91043434D01*
X141991678Y-91130616D01*
X142174315Y-91189959D01*
X142363985Y-91220000D01*
X142556015Y-91220000D01*
X142745684Y-91189959D01*
X142928321Y-91130616D01*
X143099419Y-91043436D01*
X143128646Y-91022201D01*
X143128646Y-91022200D01*
X142506447Y-90400000D01*
X142512661Y-90400000D01*
X142614394Y-90372741D01*
X142705606Y-90320080D01*
X142780080Y-90245606D01*
X142832741Y-90154394D01*
X142860000Y-90052661D01*
X142860000Y-90046446D01*
X143482200Y-90668646D01*
X143482201Y-90668646D01*
X143503436Y-90639419D01*
X143590616Y-90468319D01*
X143611805Y-90403108D01*
X143651242Y-90345433D01*
X143715600Y-90318234D01*
X143784447Y-90330148D01*
X143835923Y-90377392D01*
X143847667Y-90403108D01*
X143868916Y-90468505D01*
X143868917Y-90468506D01*
X143868918Y-90468509D01*
X143956135Y-90639681D01*
X144069055Y-90795102D01*
X144204898Y-90930945D01*
X144204903Y-90930949D01*
X144206031Y-90931912D01*
X144206343Y-90932390D01*
X144208343Y-90934390D01*
X144207922Y-90934810D01*
X144244224Y-90990419D01*
X144249500Y-91026203D01*
X144249500Y-95153918D01*
X144249500Y-95153920D01*
X144249499Y-95153920D01*
X144278340Y-95298907D01*
X144278343Y-95298917D01*
X144334913Y-95435490D01*
X144334916Y-95435496D01*
X144349475Y-95457283D01*
X144349476Y-95457288D01*
X144349478Y-95457288D01*
X144417051Y-95558420D01*
X144417052Y-95558421D01*
X149816584Y-100957952D01*
X149816586Y-100957954D01*
X149846058Y-100977645D01*
X149890270Y-101007186D01*
X149939505Y-101040084D01*
X149939506Y-101040084D01*
X149939507Y-101040085D01*
X149939509Y-101040086D01*
X150076082Y-101096656D01*
X150076087Y-101096658D01*
X150076091Y-101096658D01*
X150076092Y-101096659D01*
X150221079Y-101125500D01*
X150221082Y-101125500D01*
X150221083Y-101125500D01*
X150368918Y-101125500D01*
X168241086Y-101125500D01*
X168308125Y-101145185D01*
X168353880Y-101197989D01*
X168363824Y-101267147D01*
X168359473Y-101286380D01*
X168355914Y-101297804D01*
X168349500Y-101368384D01*
X168349500Y-101881616D01*
X168355914Y-101952196D01*
X168359471Y-101963611D01*
X168360623Y-102033468D01*
X168323823Y-102092861D01*
X168260755Y-102122930D01*
X168241086Y-102124500D01*
X149277229Y-102124500D01*
X149210190Y-102104815D01*
X149189548Y-102088181D01*
X146256819Y-99155451D01*
X146223334Y-99094128D01*
X146220500Y-99067770D01*
X146220500Y-98903945D01*
X146200520Y-98777797D01*
X146190447Y-98714199D01*
X146153342Y-98600000D01*
X146131083Y-98531493D01*
X146131082Y-98531491D01*
X146043865Y-98360319D01*
X145930945Y-98204898D01*
X145795102Y-98069055D01*
X145639681Y-97956135D01*
X145468506Y-97868916D01*
X145285802Y-97809553D01*
X145190928Y-97794526D01*
X145096055Y-97779500D01*
X144903945Y-97779500D01*
X144840696Y-97789517D01*
X144714197Y-97809553D01*
X144531493Y-97868916D01*
X144360318Y-97956135D01*
X144330502Y-97977798D01*
X144204898Y-98069055D01*
X144204896Y-98069057D01*
X144204895Y-98069057D01*
X144069057Y-98204895D01*
X144069057Y-98204896D01*
X144069055Y-98204898D01*
X144020560Y-98271645D01*
X143956135Y-98360318D01*
X143868917Y-98531492D01*
X143847667Y-98596892D01*
X143808229Y-98654567D01*
X143743870Y-98681765D01*
X143675024Y-98669850D01*
X143623548Y-98622605D01*
X143611805Y-98596891D01*
X143590616Y-98531680D01*
X143503434Y-98360577D01*
X143482201Y-98331352D01*
X143482200Y-98331351D01*
X142860000Y-98953552D01*
X142860000Y-98947339D01*
X142832741Y-98845606D01*
X142780080Y-98754394D01*
X142705606Y-98679920D01*
X142614394Y-98627259D01*
X142512661Y-98600000D01*
X142506447Y-98600000D01*
X143128646Y-97977798D01*
X143099415Y-97956561D01*
X142928321Y-97869383D01*
X142745684Y-97810040D01*
X142556015Y-97780000D01*
X142363985Y-97780000D01*
X142174315Y-97810040D01*
X141991678Y-97869383D01*
X141820578Y-97956564D01*
X141791352Y-97977798D01*
X141791351Y-97977798D01*
X142413554Y-98600000D01*
X142407339Y-98600000D01*
X142305606Y-98627259D01*
X142214394Y-98679920D01*
X142139920Y-98754394D01*
X142087259Y-98845606D01*
X142060000Y-98947339D01*
X142060000Y-98953553D01*
X141437798Y-98331351D01*
X141437798Y-98331352D01*
X141416564Y-98360578D01*
X141329383Y-98531678D01*
X141307931Y-98597703D01*
X141268493Y-98655378D01*
X141204134Y-98682576D01*
X141135288Y-98670661D01*
X141083812Y-98623417D01*
X141072069Y-98597703D01*
X141050616Y-98531678D01*
X140963434Y-98360577D01*
X140942201Y-98331352D01*
X140942200Y-98331351D01*
X140320000Y-98953552D01*
X140320000Y-98947339D01*
X140292741Y-98845606D01*
X140240080Y-98754394D01*
X140165606Y-98679920D01*
X140074394Y-98627259D01*
X139972661Y-98600000D01*
X139966447Y-98600000D01*
X140588646Y-97977798D01*
X140559415Y-97956561D01*
X140388321Y-97869383D01*
X140205684Y-97810040D01*
X140016015Y-97780000D01*
X139823985Y-97780000D01*
X139634315Y-97810040D01*
X139451678Y-97869383D01*
X139280578Y-97956564D01*
X139251352Y-97977798D01*
X139251351Y-97977798D01*
X139873554Y-98600000D01*
X139867339Y-98600000D01*
X139765606Y-98627259D01*
X139674394Y-98679920D01*
X139599920Y-98754394D01*
X139547259Y-98845606D01*
X139520000Y-98947339D01*
X139520000Y-98953553D01*
X138897798Y-98331351D01*
X138897798Y-98331352D01*
X138876564Y-98360578D01*
X138789383Y-98531678D01*
X138730040Y-98714315D01*
X138700000Y-98903984D01*
X138700000Y-99096015D01*
X138730040Y-99285684D01*
X138789383Y-99468321D01*
X138876561Y-99639415D01*
X138897798Y-99668646D01*
X139520000Y-99046445D01*
X139520000Y-99052661D01*
X139547259Y-99154394D01*
X139599920Y-99245606D01*
X139674394Y-99320080D01*
X139765606Y-99372741D01*
X139867339Y-99400000D01*
X139873554Y-99400000D01*
X139251351Y-100022200D01*
X139251352Y-100022201D01*
X139280577Y-100043434D01*
X139451678Y-100130616D01*
X139634315Y-100189959D01*
X139823985Y-100220000D01*
X140016015Y-100220000D01*
X140205684Y-100189959D01*
X140388321Y-100130616D01*
X140559419Y-100043436D01*
X140588646Y-100022201D01*
X140588646Y-100022200D01*
X139966447Y-99400000D01*
X139972661Y-99400000D01*
X140074394Y-99372741D01*
X140165606Y-99320080D01*
X140240080Y-99245606D01*
X140292741Y-99154394D01*
X140320000Y-99052661D01*
X140320000Y-99046446D01*
X140942200Y-99668646D01*
X140942201Y-99668646D01*
X140963436Y-99639419D01*
X141050616Y-99468319D01*
X141072069Y-99402297D01*
X141111507Y-99344621D01*
X141175865Y-99317423D01*
X141244712Y-99329338D01*
X141296187Y-99376582D01*
X141307931Y-99402297D01*
X141329383Y-99468319D01*
X141416561Y-99639415D01*
X141437798Y-99668646D01*
X142060000Y-99046445D01*
X142060000Y-99052661D01*
X142087259Y-99154394D01*
X142139920Y-99245606D01*
X142214394Y-99320080D01*
X142305606Y-99372741D01*
X142407339Y-99400000D01*
X142413554Y-99400000D01*
X141791351Y-100022200D01*
X141791352Y-100022201D01*
X141820577Y-100043434D01*
X141991678Y-100130616D01*
X142174315Y-100189959D01*
X142363985Y-100220000D01*
X142556015Y-100220000D01*
X142745684Y-100189959D01*
X142928321Y-100130616D01*
X143099419Y-100043436D01*
X143128646Y-100022201D01*
X143128646Y-100022200D01*
X142506447Y-99400000D01*
X142512661Y-99400000D01*
X142614394Y-99372741D01*
X142705606Y-99320080D01*
X142780080Y-99245606D01*
X142832741Y-99154394D01*
X142860000Y-99052661D01*
X142860000Y-99046446D01*
X143482200Y-99668646D01*
X143482201Y-99668646D01*
X143503436Y-99639419D01*
X143590616Y-99468319D01*
X143611805Y-99403108D01*
X143651242Y-99345433D01*
X143715600Y-99318234D01*
X143784447Y-99330148D01*
X143835923Y-99377392D01*
X143847667Y-99403108D01*
X143868916Y-99468505D01*
X143868917Y-99468508D01*
X143868918Y-99468509D01*
X143956135Y-99639681D01*
X144069055Y-99795102D01*
X144204898Y-99930945D01*
X144360319Y-100043865D01*
X144506570Y-100118384D01*
X144531493Y-100131083D01*
X144622845Y-100160764D01*
X144714199Y-100190447D01*
X144903945Y-100220500D01*
X144903946Y-100220500D01*
X145096049Y-100220500D01*
X145096055Y-100220500D01*
X145122636Y-100216289D01*
X145191923Y-100225242D01*
X145229713Y-100251081D01*
X148332049Y-103353416D01*
X148436584Y-103457951D01*
X148436587Y-103457953D01*
X148436588Y-103457954D01*
X148559503Y-103540083D01*
X148559506Y-103540085D01*
X148609665Y-103560861D01*
X148616080Y-103563518D01*
X148696088Y-103596659D01*
X148812241Y-103619763D01*
X148835380Y-103624365D01*
X148841081Y-103625500D01*
X148841082Y-103625500D01*
X148841083Y-103625500D01*
X148988918Y-103625500D01*
X168241609Y-103625500D01*
X168308648Y-103645185D01*
X168354403Y-103697989D01*
X168364347Y-103767147D01*
X168359994Y-103786390D01*
X168356409Y-103797893D01*
X168350000Y-103868427D01*
X168350000Y-103875000D01*
X170649999Y-103875000D01*
X170649999Y-103868417D01*
X170643591Y-103797897D01*
X170643590Y-103797892D01*
X170593018Y-103635603D01*
X170550116Y-103564633D01*
X170532280Y-103497078D01*
X170550115Y-103436335D01*
X170593478Y-103364606D01*
X170644086Y-103202196D01*
X170650500Y-103131616D01*
X170650500Y-102618384D01*
X170644086Y-102547804D01*
X170598620Y-102401898D01*
X170598187Y-102375560D01*
X170593974Y-102349559D01*
X170597621Y-102341179D01*
X170597471Y-102332043D01*
X170611345Y-102309650D01*
X170621860Y-102285496D01*
X170631900Y-102276477D01*
X170634272Y-102272650D01*
X170648112Y-102261914D01*
X170655189Y-102257186D01*
X170728876Y-102207952D01*
X172082951Y-100853876D01*
X172165084Y-100730955D01*
X172221658Y-100594373D01*
X172250500Y-100449378D01*
X172250500Y-100301543D01*
X172250500Y-97426082D01*
X172250500Y-97426079D01*
X172221659Y-97281092D01*
X172221658Y-97281091D01*
X172221658Y-97281087D01*
X172214033Y-97262679D01*
X172165087Y-97144511D01*
X172165085Y-97144507D01*
X172165084Y-97144505D01*
X172123955Y-97082951D01*
X172082952Y-97021584D01*
X170791183Y-95729815D01*
X169478421Y-94417052D01*
X169478414Y-94417046D01*
X169404729Y-94367812D01*
X169404729Y-94367813D01*
X169355491Y-94334913D01*
X169218917Y-94278343D01*
X169218907Y-94278340D01*
X169073920Y-94249500D01*
X169073918Y-94249500D01*
X164573917Y-94249500D01*
X164426082Y-94249500D01*
X164426080Y-94249500D01*
X164281092Y-94278340D01*
X164281082Y-94278343D01*
X164144511Y-94334912D01*
X164144498Y-94334919D01*
X164021584Y-94417048D01*
X164021580Y-94417051D01*
X162725451Y-95713181D01*
X162664128Y-95746666D01*
X162637770Y-95749500D01*
X157940638Y-95749500D01*
X157873599Y-95729815D01*
X157835099Y-95690597D01*
X157767712Y-95581344D01*
X157643656Y-95457288D01*
X157494334Y-95365186D01*
X157327797Y-95310001D01*
X157327795Y-95310000D01*
X157225010Y-95299500D01*
X156599998Y-95299500D01*
X156599980Y-95299501D01*
X156497203Y-95310000D01*
X156497200Y-95310001D01*
X156330668Y-95365185D01*
X156330663Y-95365187D01*
X156181342Y-95457289D01*
X156087681Y-95550951D01*
X156079735Y-95555289D01*
X156074310Y-95562537D01*
X156049550Y-95571771D01*
X156026358Y-95584436D01*
X156017328Y-95583790D01*
X156008846Y-95586954D01*
X155983025Y-95581337D01*
X155956666Y-95579452D01*
X155947612Y-95573633D01*
X155940573Y-95572102D01*
X155912319Y-95550951D01*
X155874319Y-95512951D01*
X155840834Y-95451628D01*
X155838000Y-95425270D01*
X155838000Y-91374047D01*
X155857685Y-91307008D01*
X155910489Y-91261253D01*
X155979647Y-91251309D01*
X156036312Y-91274781D01*
X156127910Y-91343352D01*
X156127913Y-91343354D01*
X156262620Y-91393596D01*
X156262627Y-91393598D01*
X156322155Y-91399999D01*
X156322172Y-91400000D01*
X157020000Y-91400000D01*
X157020000Y-90375277D01*
X157096306Y-90419333D01*
X157210756Y-90450000D01*
X157329244Y-90450000D01*
X157443694Y-90419333D01*
X157520000Y-90375277D01*
X157520000Y-91400000D01*
X158217828Y-91400000D01*
X158217844Y-91399999D01*
X158277372Y-91393598D01*
X158277379Y-91393596D01*
X158412086Y-91343354D01*
X158412093Y-91343350D01*
X158527187Y-91257190D01*
X158527190Y-91257187D01*
X158613350Y-91142093D01*
X158613354Y-91142086D01*
X158663596Y-91007379D01*
X158663598Y-91007372D01*
X158669999Y-90947844D01*
X158670000Y-90947827D01*
X158670000Y-90250000D01*
X157645278Y-90250000D01*
X157689333Y-90173694D01*
X157720000Y-90059244D01*
X157720000Y-89940756D01*
X157689333Y-89826306D01*
X157645278Y-89750000D01*
X158670000Y-89750000D01*
X158670000Y-89052172D01*
X158669999Y-89052155D01*
X158663598Y-88992627D01*
X158663596Y-88992620D01*
X158613354Y-88857913D01*
X158613350Y-88857906D01*
X158527190Y-88742812D01*
X158527187Y-88742809D01*
X158412093Y-88656649D01*
X158412086Y-88656645D01*
X158277379Y-88606403D01*
X158277372Y-88606401D01*
X158217844Y-88600000D01*
X157520000Y-88600000D01*
X157520000Y-89624722D01*
X157443694Y-89580667D01*
X157329244Y-89550000D01*
X157210756Y-89550000D01*
X157096306Y-89580667D01*
X157020000Y-89624722D01*
X157020000Y-88600000D01*
X156322155Y-88600000D01*
X156262627Y-88606401D01*
X156262620Y-88606403D01*
X156127913Y-88656645D01*
X156127906Y-88656649D01*
X156012812Y-88742809D01*
X156012809Y-88742812D01*
X155926649Y-88857906D01*
X155926643Y-88857918D01*
X155896785Y-88937969D01*
X155854914Y-88993903D01*
X155789449Y-89018319D01*
X155721176Y-89003467D01*
X155692923Y-88982316D01*
X155642363Y-88931756D01*
X155642358Y-88931752D01*
X155464025Y-88802187D01*
X155464024Y-88802186D01*
X155464022Y-88802185D01*
X155401096Y-88770122D01*
X155267606Y-88702104D01*
X155267603Y-88702103D01*
X155057952Y-88633985D01*
X154949086Y-88616742D01*
X154840222Y-88599500D01*
X154619778Y-88599500D01*
X154547201Y-88610995D01*
X154402047Y-88633985D01*
X154192396Y-88702103D01*
X154192393Y-88702104D01*
X153995974Y-88802187D01*
X153817641Y-88931752D01*
X153817636Y-88931756D01*
X153661756Y-89087636D01*
X153661752Y-89087641D01*
X153532187Y-89265974D01*
X153432104Y-89462393D01*
X153432103Y-89462396D01*
X153363985Y-89672047D01*
X153329500Y-89889778D01*
X153329500Y-90110221D01*
X153363985Y-90327952D01*
X153432103Y-90537603D01*
X153432104Y-90537606D01*
X153532187Y-90734025D01*
X153661752Y-90912358D01*
X153661756Y-90912363D01*
X153817636Y-91068243D01*
X153817641Y-91068247D01*
X153973192Y-91181260D01*
X153995978Y-91197815D01*
X154192394Y-91297895D01*
X154251318Y-91317040D01*
X154308993Y-91356476D01*
X154336192Y-91420834D01*
X154337000Y-91434971D01*
X154337000Y-95425270D01*
X154317315Y-95492309D01*
X154300681Y-95512951D01*
X154232289Y-95581342D01*
X154140187Y-95730663D01*
X154140185Y-95730668D01*
X154121579Y-95786819D01*
X154085001Y-95897203D01*
X154085001Y-95897204D01*
X154085000Y-95897204D01*
X154074500Y-95999983D01*
X154074500Y-97000001D01*
X154074501Y-97000019D01*
X154085000Y-97102796D01*
X154085001Y-97102799D01*
X154124387Y-97221656D01*
X154140186Y-97269334D01*
X154232288Y-97418656D01*
X154356344Y-97542712D01*
X154505666Y-97634814D01*
X154672203Y-97689999D01*
X154774991Y-97700500D01*
X155400008Y-97700499D01*
X155400016Y-97700498D01*
X155400019Y-97700498D01*
X155456302Y-97694748D01*
X155502797Y-97689999D01*
X155669334Y-97634814D01*
X155818656Y-97542712D01*
X155912319Y-97449049D01*
X155973642Y-97415564D01*
X156043334Y-97420548D01*
X156087681Y-97449049D01*
X156181344Y-97542712D01*
X156330666Y-97634814D01*
X156497203Y-97689999D01*
X156599991Y-97700500D01*
X157225008Y-97700499D01*
X157225016Y-97700498D01*
X157225019Y-97700498D01*
X157281302Y-97694748D01*
X157327797Y-97689999D01*
X157494334Y-97634814D01*
X157643656Y-97542712D01*
X157767712Y-97418656D01*
X157835099Y-97309402D01*
X157887047Y-97262679D01*
X157940638Y-97250500D01*
X163073920Y-97250500D01*
X163171462Y-97231096D01*
X163218913Y-97221658D01*
X163355495Y-97165084D01*
X163404729Y-97132186D01*
X163478416Y-97082952D01*
X163586384Y-96974984D01*
X164749500Y-96974984D01*
X164749500Y-98675015D01*
X164760000Y-98777795D01*
X164760001Y-98777796D01*
X164815186Y-98944335D01*
X164815187Y-98944337D01*
X164907286Y-99093651D01*
X164907289Y-99093655D01*
X165031344Y-99217710D01*
X165031348Y-99217713D01*
X165180662Y-99309812D01*
X165180664Y-99309813D01*
X165180666Y-99309814D01*
X165347203Y-99364999D01*
X165449992Y-99375500D01*
X165449997Y-99375500D01*
X168050003Y-99375500D01*
X168050008Y-99375500D01*
X168152797Y-99364999D01*
X168319334Y-99309814D01*
X168468655Y-99217711D01*
X168592711Y-99093655D01*
X168684814Y-98944334D01*
X168739999Y-98777797D01*
X168750500Y-98675008D01*
X168750500Y-96974992D01*
X168739999Y-96872203D01*
X168684814Y-96705666D01*
X168592711Y-96556345D01*
X168468655Y-96432289D01*
X168468651Y-96432286D01*
X168319337Y-96340187D01*
X168319335Y-96340186D01*
X168236065Y-96312593D01*
X168152797Y-96285001D01*
X168152795Y-96285000D01*
X168050015Y-96274500D01*
X168050008Y-96274500D01*
X165449992Y-96274500D01*
X165449984Y-96274500D01*
X165347204Y-96285000D01*
X165347203Y-96285001D01*
X165180664Y-96340186D01*
X165180662Y-96340187D01*
X165031348Y-96432286D01*
X165031344Y-96432289D01*
X164907289Y-96556344D01*
X164907286Y-96556348D01*
X164815187Y-96705662D01*
X164815186Y-96705664D01*
X164760001Y-96872203D01*
X164760000Y-96872204D01*
X164749500Y-96974984D01*
X163586384Y-96974984D01*
X164221181Y-96340187D01*
X164774548Y-95786819D01*
X164835871Y-95753334D01*
X164862229Y-95750500D01*
X168637770Y-95750500D01*
X168704809Y-95770185D01*
X168725451Y-95786819D01*
X170713181Y-97774549D01*
X170746666Y-97835872D01*
X170749500Y-97862230D01*
X170749500Y-99698677D01*
X170729815Y-99765716D01*
X170677011Y-99811471D01*
X170607853Y-99821415D01*
X170544297Y-99792390D01*
X170519384Y-99762828D01*
X170505471Y-99739814D01*
X170505468Y-99739810D01*
X170385188Y-99619530D01*
X170363827Y-99606617D01*
X170239606Y-99531522D01*
X170077196Y-99480914D01*
X170077194Y-99480913D01*
X170077192Y-99480913D01*
X170027778Y-99476423D01*
X170006616Y-99474500D01*
X168993384Y-99474500D01*
X168974145Y-99476248D01*
X168922807Y-99480913D01*
X168760393Y-99531522D01*
X168687358Y-99575673D01*
X168636171Y-99606617D01*
X168572023Y-99624500D01*
X150657230Y-99624500D01*
X150590191Y-99604815D01*
X150569549Y-99588181D01*
X145786819Y-94805451D01*
X145753334Y-94744128D01*
X145750500Y-94717770D01*
X145750500Y-91026203D01*
X145770185Y-90959164D01*
X145791736Y-90934469D01*
X145791657Y-90934390D01*
X145792830Y-90933216D01*
X145793969Y-90931912D01*
X145795089Y-90930953D01*
X145795102Y-90930945D01*
X145930945Y-90795102D01*
X146043865Y-90639681D01*
X146131082Y-90468509D01*
X146190447Y-90285801D01*
X146220500Y-90096055D01*
X146220500Y-89903945D01*
X146190447Y-89714199D01*
X146153342Y-89600000D01*
X146131083Y-89531493D01*
X146095875Y-89462394D01*
X146043865Y-89360319D01*
X145930945Y-89204898D01*
X145795102Y-89069055D01*
X145639681Y-88956135D01*
X145468506Y-88868916D01*
X145285802Y-88809553D01*
X145190928Y-88794526D01*
X145096055Y-88779500D01*
X144903945Y-88779500D01*
X144840696Y-88789517D01*
X144714197Y-88809553D01*
X144531493Y-88868916D01*
X144360318Y-88956135D01*
X144295172Y-89003467D01*
X144204898Y-89069055D01*
X144204896Y-89069057D01*
X144204895Y-89069057D01*
X144069057Y-89204895D01*
X144069057Y-89204896D01*
X144069055Y-89204898D01*
X144050995Y-89229756D01*
X143956135Y-89360318D01*
X143868917Y-89531492D01*
X143847667Y-89596892D01*
X143808229Y-89654567D01*
X143743870Y-89681765D01*
X143675024Y-89669850D01*
X143623548Y-89622605D01*
X143611805Y-89596891D01*
X143590616Y-89531680D01*
X143503434Y-89360577D01*
X143482201Y-89331352D01*
X143482200Y-89331351D01*
X142860000Y-89953552D01*
X142860000Y-89947339D01*
X142832741Y-89845606D01*
X142780080Y-89754394D01*
X142705606Y-89679920D01*
X142614394Y-89627259D01*
X142512661Y-89600000D01*
X142506447Y-89600000D01*
X143128646Y-88977798D01*
X143099415Y-88956561D01*
X142928321Y-88869383D01*
X142745684Y-88810040D01*
X142556015Y-88780000D01*
X142363985Y-88780000D01*
X142174315Y-88810040D01*
X141991678Y-88869383D01*
X141820578Y-88956564D01*
X141791352Y-88977798D01*
X141791351Y-88977798D01*
X142413554Y-89600000D01*
X142407339Y-89600000D01*
X142305606Y-89627259D01*
X142214394Y-89679920D01*
X142139920Y-89754394D01*
X142087259Y-89845606D01*
X142060000Y-89947339D01*
X142060000Y-89953553D01*
X141437798Y-89331351D01*
X141437798Y-89331352D01*
X141416564Y-89360578D01*
X141329383Y-89531678D01*
X141307931Y-89597703D01*
X141268493Y-89655378D01*
X141204134Y-89682576D01*
X141135288Y-89670661D01*
X141083812Y-89623417D01*
X141072069Y-89597703D01*
X141050616Y-89531678D01*
X140963434Y-89360577D01*
X140942201Y-89331352D01*
X140942200Y-89331351D01*
X140320000Y-89953552D01*
X140320000Y-89947339D01*
X140292741Y-89845606D01*
X140240080Y-89754394D01*
X140165606Y-89679920D01*
X140074394Y-89627259D01*
X139972661Y-89600000D01*
X139966447Y-89600000D01*
X140588646Y-88977798D01*
X140559415Y-88956561D01*
X140388321Y-88869383D01*
X140205684Y-88810040D01*
X140016015Y-88780000D01*
X139823985Y-88780000D01*
X139634315Y-88810040D01*
X139451678Y-88869383D01*
X139280578Y-88956564D01*
X139251352Y-88977798D01*
X139251351Y-88977798D01*
X139873554Y-89600000D01*
X139867339Y-89600000D01*
X139765606Y-89627259D01*
X139674394Y-89679920D01*
X139599920Y-89754394D01*
X139547259Y-89845606D01*
X139520000Y-89947339D01*
X139520000Y-89953553D01*
X138897798Y-89331351D01*
X138897798Y-89331352D01*
X138876564Y-89360578D01*
X138789383Y-89531678D01*
X138730040Y-89714315D01*
X138700000Y-89903984D01*
X134000500Y-89903984D01*
X134000500Y-87503051D01*
X134000649Y-87496967D01*
X134003737Y-87434108D01*
X134017052Y-87163068D01*
X134018245Y-87150962D01*
X134028096Y-87084550D01*
X134066849Y-86823296D01*
X134069218Y-86811385D01*
X134149710Y-86490043D01*
X134153240Y-86478411D01*
X134264835Y-86166525D01*
X134269476Y-86155318D01*
X134411124Y-85855828D01*
X134416840Y-85845136D01*
X134587145Y-85560998D01*
X134593888Y-85550905D01*
X134791232Y-85284818D01*
X134798935Y-85275433D01*
X135021405Y-85029975D01*
X135029975Y-85021405D01*
X135275433Y-84798935D01*
X135284818Y-84791232D01*
X135550905Y-84593888D01*
X135560998Y-84587145D01*
X135845136Y-84416840D01*
X135855828Y-84411124D01*
X136155318Y-84269476D01*
X136166525Y-84264835D01*
X136478412Y-84153239D01*
X136490043Y-84149710D01*
X136811385Y-84069218D01*
X136823296Y-84066849D01*
X137150962Y-84018244D01*
X137163068Y-84017052D01*
X137496967Y-84000648D01*
X137503051Y-84000500D01*
X137565892Y-84000500D01*
X166912291Y-84000500D01*
X166979330Y-84020185D01*
G37*
%TD.AperFunction*%
%TD*%
M02*
